<svg width="21" height="24" viewBox="0 0 21 24" fill="none" xmlns="http://www.w3.org/2000/svg">
<path d="M18.05 8.93463V8.88463H18H13.5C11.9404 8.88463 10.6864 7.77768 10.6864 6.42725V2.48708V2.43708H10.6364H3.27272H3.22272V2.48708V21.1133V21.1633H3.27272H18H18.05V21.1133V8.93463ZM17.802 6.83545H17.935L17.8349 6.74783L13.1238 2.62283L13.0409 2.55021V2.66044V6.42725C13.0409 6.65862 13.253 6.83545 13.5 6.83545H17.802ZM14.3556 0.795311L14.3556 0.795316L19.9421 5.68686L19.9751 5.64924L19.9422 5.68687C20.2391 5.9468 20.4045 6.29784 20.4045 6.66224V21.8297C20.4045 22.1942 20.2393 22.5453 19.9423 22.8053C19.6452 23.0654 19.2409 23.2125 18.8182 23.2125H2.45454C2.03182 23.2125 1.62754 23.0654 1.33039 22.8053C1.03346 22.5453 0.868176 22.1942 0.868176 21.8297V1.77068C0.868176 1.40625 1.03346 1.05516 1.33039 0.795163C1.62754 0.534983 2.03182 0.387891 2.45454 0.387891H13.2316C13.6543 0.38797 14.0585 0.535114 14.3556 0.795311ZM6.11967 12.1526C6.34009 11.9596 6.64032 11.8502 6.95454 11.8502H14.3182C14.6324 11.8502 14.9326 11.9596 15.1531 12.1526C15.3733 12.3454 15.4954 12.6054 15.4954 12.8748C15.4954 13.1442 15.3733 13.4042 15.1531 13.597C14.9326 13.79 14.6324 13.8994 14.3182 13.8994H6.95454C6.64032 13.8994 6.34009 13.79 6.11967 13.597C5.89945 13.4042 5.77727 13.1442 5.77727 12.8748C5.77727 12.6054 5.89945 12.3454 6.11967 12.1526ZM5.77727 16.4568C5.77727 16.1873 5.89945 15.9274 6.11967 15.7345C6.34009 15.5415 6.64032 15.4322 6.95454 15.4322H11.0454C11.3597 15.4322 11.6599 15.5415 11.8803 15.7345C12.1005 15.9274 12.2227 16.1873 12.2227 16.4568C12.2227 16.7262 12.1005 16.9862 11.8803 17.179C11.6599 17.372 11.3597 17.4814 11.0454 17.4814H6.95454C6.64032 17.4814 6.34009 17.372 6.11967 17.179C5.89945 16.9862 5.77727 16.7262 5.77727 16.4568Z" fill="#525669" stroke="#171F4A" stroke-width="0.1"/>
</svg>
